<?xml version="1.0" encoding="UTF-8"?>
<svg id="Ebene_1" xmlns="http://www.w3.org/2000/svg" version="1.1" viewBox="0 0 1013 1079">
  <!-- Generator: Adobe Illustrator 29.8.2, SVG Export Plug-In . SVG Version: 2.1.1 Build 3)  -->
  <path d="M717,815v3c-1.95,7.08-5.9,7.68-11.79,3.8l-.32-1.29c.16-8.45,5.77-11.65,12.11-5.51Z"/>
  <path d="M280.74,764.21c16.53-3.23,15.02,24.84.75,24.8-16.32-.04-13.73-22.27-.75-24.8Z"/>
  <path d="M653.7,717.21c5.31-1.6,11.18,1.62,12.67,7,2.13,7.72-7.09,13-13.73,8.65-5.46-3.58-5.56-13.65,1.07-15.65Z"/>
  <path d="M332.74,888.23c12.89-1.19,12.43,19.45-.78,15.32-5.02-1.57-6-10.34-2.92-14.02,1.12-.58,2.45-1.19,3.7-1.3Z"/>
  <path d="M606.73,748.17c7.06-1.48,13.05,6.79,7.82,12.89-9.37,10.94-20.13-10.31-7.82-12.89Z"/>
  <path d="M642.71,556.22c13.25-3.89,14.45,15.37,1.88,13.76-7.79-1-7.25-12.19-1.88-13.76Z"/>
  <path d="M458.73,979.2c11.45-2.48,12.37,12.49,1.9,11.77-8.57-.59-9.03-10.22-1.9-11.77Z"/>
  <path d="M277.71,649.69c-2.84,2.32-6.48.9-9.6.2-.71-5.75-.84-11.65,6.41-11.96,6.76-.29,6.93,8.71,3.19,11.77Z"/>
  <path d="M385.69,743.2c11.06-3.39,12.55,14.22-.19,11.8-5.08-.96-4.23-10.45.19-11.8Z"/>
  <path d="M605.74,928.17c3.44-.69,5.18.84,7.77,2.79,1.39,11.34-15.75,7.58-12.03.04,1.03-1.24,2.68-2.51,4.26-2.82Z"/>
</svg>