<?xml version="1.0" encoding="UTF-8"?>
<svg id="Ebene_144" data-name="Ebene 2" xmlns="http://www.w3.org/2000/svg" viewBox="0 0 248.34 240.04">
  <defs>
    <style>
      #Ebene_144 .cls-1 {
        fill: #19392c;
      }

      #Ebene_144 .cls-2 {
        fill: #cd98d4;
      }

      #Ebene_144 .cls-3 {
        fill: #98d4c1;
      }

      #Ebene_144 .cls-4 {
        fill: #197b5c;
      }

      #Ebene_144 .cls-5 {
        fill: #30a680;
      }
    </style>
  </defs>
  <g id="_144" data-name="144">
    <path class="cls-4" d="M54.2,94c-3.39,2.97-5.45,7.41-5.15,12.33.35,5.82,4.25,10.87,9.63,13.1,3.19,1.33,6.18,1.35,8.93.72-.89,2.67-1.08,5.66-.23,8.79,1.48,5.48,6.03,9.77,11.6,10.84,5.81,1.12,11.17-1.08,14.54-5.03-.03.38-.06.77-.06,1.16,0,8.37,6.79,15.16,15.16,15.16,7.01,0,12.9-4.77,14.63-11.24,1.85,6.29,7.65,10.89,14.54,10.89,8.37,0,15.16-6.79,15.16-15.16,0-.38-.03-.75-.06-1.13,0,0,.01,0,.02,0,3.38,3.94,8.73,6.13,14.53,5.01,5.57-1.08,10.11-5.37,11.59-10.84.84-3.12.65-6.11-.23-8.79,2.74.63,5.72.61,8.9-.71,5.42-2.24,9.33-7.33,9.66-13.19.24-4.21-1.26-8.05-3.82-10.93,4.66-10.8-5.83-21.13-7.66-15.6-1.84,5.54-7.01,9.29-12.85,9.29l-99.47-.08c-5.97,0-11.29-3.9-12.93-9.64-1.55-5.44-9.54,8.05-6.44,15.04Z"/>
    <circle class="cls-4" cx="145.54" cy="25.86" r="25.86"/>
    <path class="cls-3" d="M248.34,189.82c-1.58-56.42-59.79-50.94-100.18-49.92v-30.08c8.67-4.63,15.84-11.66,20.69-20.19,21.93,5.2,28.34-29.86,6.17-32.92-6.65-58.29-96.81-58.08-102.79.3-22.28,3.23-15.42,38.4,6.54,32.85,4.81,8.39,12.09,15.04,20.41,19.85v30.2h-46.48c-67.47-3.02-71.7,98.97-3.78,100.11,0,0,145.71,0,145.71,0,28.61,1,53.87-20.76,53.7-50.19Z"/>
    <path class="cls-4" d="M123.97,115.42c-4.8,0-9.43-.7-13.85-1.9l22.11,13.64c3.02,1.86,6.98.72,8.54-2.46l7.48-14.93c-7.29,3.79-15.51,5.64-24.29,5.64Z"/>
    <g>
      <circle class="cls-1" cx="108.12" cy="62.98" r="5.74"/>
      <circle class="cls-1" cx="140.34" cy="62.83" r="5.74"/>
    </g>
    <path class="cls-2" d="M156.96,139.22s-14.66,33.07-32.82,33.07-33.07-32.41-33.07-32.41l65.89-.65Z"/>
    <rect class="cls-3" x="99.19" y="128.72" width="49.07" height="11.82"/>
    <g>
      <rect class="cls-5" x="86.97" y="139.87" width="9.39" height="100.13"/>
      <path class="cls-5" d="M151.67,139.24v100.79h9.39s0-100.81,0-100.81c-2.85,0-6.03,0-9.39.03Z"/>
      <path class="cls-5" d="M75.46,139.87c-2.27-.07-4.33,1.03-6.22,3.04v97.08h9.39s0-100.12,0-100.12h-3.17Z"/>
      <path class="cls-5" d="M50.56,239.98h10.34s0-79.3,0-79.3c-8.49,29.33-10.34,79.3-10.34,79.3Z"/>
      <path class="cls-5" d="M107.19,139.77v.1h-2.49v100.13l38.62.02v-100.72c-17.53.16-36.13.47-36.13.47Z"/>
      <path class="cls-5" d="M199.08,240.04s-3.85-42.36-11.95-72.15v72.15h11.95Z"/>
      <path class="cls-5" d="M170.29,139.3c-.28,0-.58-.01-.89-.02v100.75h9.39s0-93.89,0-93.89c-2.58-4.22-5.41-6.77-8.5-6.85Z"/>
      <path class="cls-4" d="M60.9,160.68v79.3h8.34s0-97.07,0-97.07c-3.32,3.54-6.07,9.91-8.34,17.77Z"/>
      <rect class="cls-4" x="78.63" y="139.87" width="8.34" height="100.12"/>
      <rect class="cls-4" x="96.36" y="139.87" width="8.34" height="100.13"/>
      <path class="cls-4" d="M143.33,139.3v100.72h8.34s0-100.78,0-100.78c-2.7.02-5.5.04-8.34.06Z"/>
      <path class="cls-4" d="M161.06,139.21v100.82h8.34s0-100.75,0-100.75c-2.16-.04-5.03-.06-8.34-.07Z"/>
      <path class="cls-4" d="M187.13,167.89c-2.4-8.83-5.18-16.56-8.34-21.75v93.89h8.34s0-72.14,0-72.14Z"/>
    </g>
    <path class="cls-4" d="M73.15,61.68c-.99-3.03-1.28-6.27-.74-9.41,2.59-14.89,14.98-42.53,50.88-42.53,44.16,0,51.25,38.25,52.27,46.55.12,1,.02,2.01-.3,2.96l-2.48,7.57c-.34,1.04-1.31,1.74-2.4,1.74h0c-1.39,0-2.53-1.13-2.53-2.53v-5.97c0-1.06-.2-3.47-.57-6.38-1.28-10.27-10.04-17.97-20.39-17.97h-46.31c-10.71,0-19.64,8.23-20.49,18.91-.2,2.53-.3,4.56-.3,5.48v5.95c0,1.11-.67,2.16-1.73,2.49-1.39.44-2.77-.33-3.19-1.61l-1.72-5.25Z"/>
    <path class="cls-4" d="M144.42,23.32c-5.27,0-9.77,3.26-11.61,7.87-1.74-4.81-6.34-8.25-11.75-8.25-5.01,0-9.32,2.95-11.32,7.21-1.99-4.28-6.31-7.25-11.34-7.25-6.91,0-12.51,5.6-12.51,12.51s5.6,12.51,12.51,12.51c5.01,0,9.32-2.95,11.32-7.21,1.99,4.28,6.31,7.25,11.34,7.25s9.77-3.26,11.61-7.87c1.74,4.81,6.34,8.25,11.75,8.25,6.91,0,12.51-5.6,12.51-12.51s-5.6-12.51-12.51-12.51Z"/>
    <path class="cls-1" d="M143.41,51.18c-8.66,0-15.7,7.04-15.7,15.7,0,.05,0,.1,0,.15h-7.83c-.09-8.58-7.09-15.54-15.69-15.54s-15.7,7.04-15.7,15.7,7.04,15.7,15.7,15.7c8.02,0,14.65-6.05,15.58-13.83h8.11c1.07,7.62,7.62,13.51,15.53,13.51,8.66,0,15.7-7.04,15.7-15.7s-7.04-15.7-15.7-15.7ZM104.19,80.44c-7.3,0-13.25-5.94-13.25-13.25s5.94-13.25,13.25-13.25,13.25,5.94,13.25,13.25-5.94,13.25-13.25,13.25ZM143.41,80.13c-7.3,0-13.25-5.94-13.25-13.25s5.94-13.25,13.25-13.25,13.25,5.94,13.25,13.25-5.94,13.25-13.25,13.25Z"/>
  </g>
</svg>