<?xml version="1.0" encoding="UTF-8"?>
<svg id="Ebene_150_1" data-name="Ebene 2" xmlns="http://www.w3.org/2000/svg" viewBox="0 0 248.42 229.44">
  <defs>
    <style>
      #Ebene_150_1 .cls-1 {
        fill: #310637;
      }

      #Ebene_150_1 .cls-2 {
        fill: #cd98d4;
      }

      #Ebene_150_1 .cls-3 {
        fill: none;
        stroke: #6c1876;
        stroke-linecap: round;
        stroke-miterlimit: 10;
        stroke-width: 5px;
      }

      #Ebene_150_1 .cls-4 {
        fill: #6c1876;
      }

      #Ebene_150_1 .cls-5 {
        fill: #9830a6;
      }
    </style>
  </defs>
  <g id="_150" data-name="150">
    <path class="cls-2" d="M248.34,179.21c-1.58-56.42-59.79-50.94-100.18-49.92v-30.08c8.67-4.63,15.84-11.66,20.69-20.19,21.93,5.2,28.34-29.86,6.17-32.92-6.65-58.29-96.81-58.08-102.79.3-22.28,3.23-15.42,38.4,6.54,32.85,4.81,8.39,12.09,15.04,20.41,19.85v30.2h-46.48c-67.47-3.02-71.7,98.97-3.78,100.11,0,0,145.71,0,145.71,0,28.61,1,53.87-20.76,53.7-50.19Z"/>
    <path class="cls-4" d="M123.97,104.81c-4.8,0-9.43-.7-13.85-1.9l22.11,13.64c3.02,1.86,6.98.72,8.54-2.46l7.48-14.93c-7.29,3.79-15.51,5.64-24.29,5.64Z"/>
    <ellipse class="cls-2" cx="94.36" cy="78.56" rx="14.68" ry="20.85" transform="translate(-14.7 22.16) rotate(-12.43)"/>
    <ellipse class="cls-2" cx="153.67" cy="79.52" rx="20.85" ry="14.68" transform="translate(42.93 212.47) rotate(-77.57)"/>
    <path class="cls-5" d="M191.11,129.16c-20.19-1.23-91.84,0-91.84,0v.1h-46.48c-67.47-3.02-71.7,98.97-3.78,100.11,0,0,145.71,0,145.71,0,28.61,1,53.87-20.76,53.7-50.19-1.06-37.91-28.57-48.26-57.31-50.02Z"/>
    <g>
      <circle class="cls-1" cx="108.12" cy="52.37" r="5.74"/>
      <circle class="cls-1" cx="140.34" cy="52.22" r="5.74"/>
    </g>
    <g id="wrinkle">
      <rect class="cls-5" x="93.24" y="51.04" width="8.2" height="1.38" rx=".63" ry=".63"/>
      <path class="cls-5" d="M100.91,54.96l-6.94,1.62c-.31.07-.61-.17-.67-.55h0c-.06-.38.14-.74.45-.81l6.94-1.62c.31-.07.61.17.67.55h0c.06.38-.14.74-.45.81Z"/>
      <rect class="cls-5" x="147.08" y="51.36" width="8.69" height="1.47" rx=".66" ry=".66" transform="translate(302.85 104.18) rotate(-180)"/>
      <path class="cls-5" d="M147.64,55.51l7.35,1.72c.33.08.64-.18.7-.58h0c.06-.4-.15-.78-.48-.86l-7.35-1.72c-.33-.08-.64.18-.7.58h0c-.06.4.15.78.48.86Z"/>
      <path class="cls-5" d="M112.49,59.39l-5.71,2.96c-.25.13-.57-.02-.7-.33h0c-.14-.32-.04-.68.21-.81l5.71-2.96c.25-.13.57.02.7.33h0c.14.32.04.68-.21.81Z"/>
      <path class="cls-5" d="M135.98,59.39l5.73,2.97c.25.13.57-.02.71-.33h0c.14-.32.04-.68-.22-.81l-5.73-2.97c-.25-.13-.57.02-.71.33h0c-.14.32-.04.68.22.81Z"/>
      <rect class="cls-5" x="114.81" y="34.11" width="18.3" height="1.38" rx=".62" ry=".62"/>
      <rect class="cls-5" x="116.6" y="37.43" width="14.72" height="1.38" rx=".55" ry=".55"/>
    </g>
    <rect class="cls-4" x="92.1" y="113.13" width="64.3" height="20.77" rx="7.13" ry="7.13"/>
    <rect class="cls-5" x="91.9" y="110.13" width="64.3" height="20.77" rx="7.13" ry="7.13"/>
    <g>
      <path class="cls-5" d="M101.07,89.36c-.33,0-.65-.16-.84-.45-.3-.46-.17-1.08.29-1.38,7.1-4.63,10.38-7.58,9.89-14.54-.04-.55.38-1.03.93-1.07.54-.02,1.03.38,1.07.93.59,8.28-3.89,11.85-10.79,16.35-.17.11-.36.16-.55.16Z"/>
      <path class="cls-5" d="M147.47,90.31c-.19,0-.38-.05-.55-.16-6.9-4.5-11.38-8.08-10.79-16.35.04-.55.5-.96,1.07-.93.55.04.96.52.93,1.07-.49,6.96,2.79,9.91,9.89,14.54.46.3.59.92.29,1.38-.19.29-.51.45-.84.45Z"/>
    </g>
    <rect class="cls-1" x="122.21" y="131.27" width="3.55" height="97.65"/>
    <g>
      <rect class="cls-1" x="121.07" y="133.9" width="5.83" height="7.49" rx="1.18" ry="1.18"/>
      <rect class="cls-4" x="121.07" y="137.74" width="5.83" height="10.66" rx="1.41" ry="1.41"/>
      <rect class="cls-1" x="122.46" y="135.73" width="3.05" height="4.86" rx=".69" ry=".69"/>
    </g>
    <rect class="cls-4" x="68.74" y="32.57" width="9.96" height="31.62" rx="4.98" ry="4.98"/>
    <rect class="cls-4" x="168.7" y="32.57" width="9.96" height="31.62" rx="4.98" ry="4.98"/>
    <path class="cls-3" d="M101.99,7.82c6.32-2.85,22.04-8.83,37.75-2.57,2.25.9,4.31,1.97,6.18,3.14"/>
    <path class="cls-3" d="M107.36,14.02c4.77-2.16,16.65-6.67,28.52-1.94,1.7.68,3.26,1.49,4.67,2.37"/>
  </g>
</svg>